<svg width="129" height="131" viewBox="0 0 129 131" fill="none" xmlns="http://www.w3.org/2000/svg">
<path d="M61.4013 1.5028C62.7134 -0.500936 65.65 -0.500933 66.962 1.5028L71.6715 8.69507C72.7215 10.2986 74.9067 10.6839 76.4419 9.53621L83.3273 4.38843C85.2455 2.95428 88.005 3.95866 88.5526 6.29031L90.5182 14.6596C90.9564 16.5256 92.878 17.635 94.7132 17.0815L102.944 14.5992C105.237 13.9076 107.487 15.7952 107.204 18.1735L106.188 26.7103C105.962 28.6137 107.388 30.3134 109.302 30.421L117.885 30.9034C120.277 31.0378 121.745 33.581 120.666 35.7191L116.792 43.3938C115.928 45.1049 116.687 47.19 118.448 47.9456L126.349 51.3346C128.55 52.2788 129.06 55.1708 127.315 56.8109L121.05 62.6977C119.653 64.0103 119.653 66.2292 121.05 67.5417L127.315 73.4286C129.06 75.0686 128.55 77.9606 126.349 78.9048L118.448 82.2938C116.687 83.0494 115.928 85.1345 116.792 86.8456L120.666 94.5203C121.745 96.6585 120.277 99.2016 117.885 99.336L109.302 99.8184C107.388 99.926 105.962 101.626 106.188 103.529L107.204 112.066C107.487 114.444 105.237 116.332 102.944 115.64L94.7132 113.158C92.878 112.604 90.9564 113.714 90.5182 115.58L88.5526 123.949C88.005 126.281 85.2455 127.285 83.3273 125.851L76.4419 120.703C74.9067 119.555 72.7215 119.941 71.6715 121.544L66.962 128.737C65.65 130.74 62.7134 130.74 61.4013 128.737L56.6918 121.544C55.6418 119.941 53.4566 119.555 51.9215 120.703L45.0361 125.851C43.1178 127.285 40.3583 126.281 39.8107 123.949L37.8451 115.58C37.4069 113.714 35.4853 112.604 33.6502 113.158L25.4194 115.64C23.1263 116.332 20.8767 114.444 21.1596 112.066L22.175 103.529C22.4014 101.626 20.9752 99.926 19.0614 99.8184L10.478 99.336C8.08667 99.2016 6.61837 96.6585 7.69763 94.5203L11.5716 86.8456C12.4353 85.1345 11.6764 83.0494 9.91484 82.2938L2.01404 78.9048C-0.187089 77.9606 -0.697023 75.0686 1.04844 73.4286L7.31364 67.5417C8.71052 66.2292 8.71052 64.0103 7.31364 62.6977L1.04844 56.8109C-0.697025 55.1708 -0.187087 52.2788 2.01404 51.3346L9.91484 47.9456C11.6764 47.19 12.4353 45.1049 11.5716 43.3938L7.69763 35.7191C6.61837 33.581 8.08667 31.0378 10.478 30.9034L19.0614 30.421C20.9752 30.3134 22.4014 28.6137 22.175 26.7103L21.1596 18.1735C20.8767 15.7952 23.1263 13.9076 25.4194 14.5992L33.6502 17.0815C35.4853 17.635 37.4069 16.5256 37.8451 14.6596L39.8107 6.29031C40.3583 3.95866 43.1178 2.95429 45.0361 4.38844L51.9215 9.53621C53.4566 10.6839 55.6418 10.2986 56.6918 8.69507L61.4013 1.5028Z" fill="#ED6C31"/>
<circle cx="34.8248" cy="84.0909" r="1.6988" fill="white"/>
<circle cx="94.2828" cy="84.0911" r="1.6988" fill="white"/>
<path d="M71.4258 83.4463L80.7455 81.1301C80.7455 81.1301 76.7329 54.0014 76.7074 53.8153C76.6818 53.6292 76.5192 53.5259 76.3842 53.5147C76.2503 53.5034 73.6264 53.4635 73.6264 53.4635C73.6264 53.4635 72.0271 51.9102 71.4258 51.3223V83.4463Z" fill="white"/>
<path d="M70.4116 51.0125C70.4095 51.0135 69.9995 51.1403 69.3092 51.354C69.1937 50.9798 69.0239 50.5196 68.7816 50.0574C68.0003 48.5665 66.8561 47.7781 65.4736 47.7761C65.4715 47.7761 65.4705 47.7761 65.4685 47.7761C65.3723 47.7761 65.2772 47.7853 65.1811 47.7934C65.1402 47.7444 65.0993 47.6963 65.0564 47.6493C64.4541 47.005 63.682 46.6911 62.7566 46.7187C60.9712 46.7698 59.193 48.0593 57.7511 50.3499C56.7367 51.9614 55.9647 53.9861 55.7459 55.5537C53.6956 56.1887 52.262 56.6325 52.2303 56.6427C51.1954 56.9679 51.1627 56.9996 51.0277 57.9752C50.9265 58.7124 48.2188 79.6505 48.2188 79.6505L70.6836 83.5353V50.9665C70.5731 50.9736 70.4739 50.9941 70.4116 51.0125ZM65.2241 52.6189C64.0348 52.9871 62.7372 53.3889 61.4355 53.7918C61.8015 52.3899 62.4959 50.9941 63.3487 50.0789C63.6657 49.7384 64.1095 49.359 64.6351 49.1422C65.129 50.173 65.2363 51.6322 65.2241 52.6189ZM62.7914 47.9069C63.2106 47.8977 63.5634 47.9898 63.8651 48.1881C63.3824 48.4387 62.9161 48.7986 62.4785 49.268C61.3444 50.4848 60.4753 52.3735 60.1286 54.1957C59.0478 54.5301 57.9904 54.8584 57.0169 55.159C57.6315 52.2907 60.0356 47.9867 62.7914 47.9069ZM59.3177 64.2466C59.4384 66.1577 64.4663 66.575 64.7486 71.0518C64.9705 74.5735 62.8803 76.9827 59.8689 77.1729C56.2541 77.4009 54.2642 75.2678 54.2642 75.2678L55.0301 72.0089C55.0301 72.0089 57.0333 73.5202 58.6367 73.419C59.6838 73.3525 60.0581 72.5007 60.0202 71.8984C59.8627 69.4054 55.7684 69.5527 55.5097 65.4563C55.2919 62.0092 57.5558 58.5161 62.5511 58.2011C64.4755 58.0795 65.4613 58.5713 65.4613 58.5713L64.3191 62.8446C64.3191 62.8446 63.045 62.2648 61.5346 62.3599C59.3187 62.5 59.2952 63.8968 59.3177 64.2466ZM66.4113 52.2518C66.398 51.3479 66.2906 50.0901 65.8693 49.0031C67.2242 49.2598 67.8909 50.7926 68.1732 51.7068C67.6506 51.8673 67.0555 52.0514 66.4113 52.2518Z" fill="white"/>
<path d="M34.8141 71.5416L34.4846 69.6201L31.9225 70.0594L31.5745 68.0294L30.1456 68.2744L30.4937 70.3043L28.9269 70.573L28.496 68.0602L27.008 68.3153L27.7683 72.7497L34.8141 71.5416Z" fill="white"/>
<path d="M33.9307 65.4108L34.0375 63.4741L31.382 63.3277L31.42 62.6389L34.1454 61.5175L34.2576 59.481L31.1503 60.8117C30.9076 60.1274 30.4343 59.6307 29.456 59.5768L29.2763 59.5668C27.8188 59.4865 27.0494 60.3653 26.9482 62.2022L26.793 65.0173L33.9307 65.4108ZM30.1242 63.2584L28.3772 63.1621L28.4207 62.3734C28.4553 61.7445 28.6831 61.4266 29.2422 61.4575L29.4019 61.4663C29.9809 61.4982 30.2023 61.8408 30.1671 62.4797L30.1242 63.2584Z" fill="white"/>
<path d="M35.6795 54.7403C36.3103 52.7796 35.4895 51.0872 33.5574 50.4656L32.796 50.2206C30.8259 49.5867 29.2714 50.599 28.6712 52.4644C28.0833 54.2918 28.8262 56.0958 30.7488 56.7143L31.5197 56.9623C33.4137 57.5717 35.0487 56.7009 35.6795 54.7403ZM34.2104 54.2466C33.9532 55.0461 33.1947 55.3797 32.1287 55.0367L31.3578 54.7887C30.2918 54.4457 29.8797 53.7355 30.1369 52.936C30.3941 52.1365 31.1591 51.8155 32.1965 52.1493L32.9674 52.3973C34.0239 52.7372 34.4707 53.4376 34.2104 54.2466Z" fill="white"/>
<path d="M37.3223 49.8931L38.2811 48.4776L34.6056 45.9883L39.1557 47.1862L39.5033 46.6729L36.7136 42.8757L40.3891 45.365L41.4712 43.7673L35.5523 39.7586L34.1675 41.8033L36.4746 44.8511L32.7939 43.8315L31.4035 45.8844L37.3223 49.8931Z" fill="white"/>
<path d="M46.1845 39.3963L47.8187 38.3516L46.2733 35.9339L48.017 34.8192L49.5625 37.2369L51.1968 36.1922L47.3466 30.1691L45.7123 31.2138L47.1878 33.5219L45.444 34.6366L43.9685 32.3284L42.3343 33.3731L46.1845 39.3963Z" fill="white"/>
<path d="M53.3046 35.3282L57.7757 33.7878L57.2839 32.3604L54.6466 33.269L54.1777 31.9078L56.1627 31.2239L55.7101 29.91L53.725 30.5939L53.3016 29.365L55.7971 28.5053L55.3054 27.0779L50.976 28.5695L53.3046 35.3282Z" fill="white"/>
<path d="M59.731 33.426L64.1143 32.8639L63.921 31.3565L61.4814 31.6694L60.7654 26.0862L58.8218 26.3354L59.731 33.426Z" fill="white"/>
<path d="M66.1116 32.8983L70.5174 33.2411L70.6353 31.726L68.1832 31.5352L68.6198 25.9232L66.6661 25.7712L66.1116 32.8983Z" fill="white"/>
<path d="M75.2355 34.6339C77.1938 35.2719 78.8893 34.4572 79.518 32.5275L79.7657 31.767C80.4068 29.7992 79.4002 28.241 77.537 27.6339C75.7118 27.0393 73.9052 27.7757 73.2796 29.6959L73.0287 30.4659C72.4124 32.3577 73.2772 33.9959 75.2355 34.6339ZM75.7346 33.1666C74.936 32.9065 74.6052 32.1467 74.9521 31.082L75.2029 30.312C75.5498 29.2473 76.2616 28.8378 77.0601 29.0979C77.8586 29.3581 78.1768 30.1242 77.8393 31.1604L77.5884 31.9304C77.2446 32.9856 76.5426 33.4299 75.7346 33.1666Z" fill="white"/>
<path d="M84.3143 39.1095L85.8034 40.414L89.3365 37.9133L87.3075 41.7316L88.7063 42.957L94.59 38.6076L93.2363 37.4217L89.6653 40.2084L91.83 36.1898L90.6643 35.1686L87.052 37.8658L89.3407 34.0091L87.8667 32.7178L84.3143 39.1095Z" fill="white"/>
<path d="M91.9951 47.7503C93.0913 49.4939 94.9153 49.9534 96.6336 48.8732L97.3108 48.4475C99.0629 47.3461 99.287 45.5046 98.2441 43.8456C97.2225 42.2204 95.3631 41.6296 93.6533 42.7045L92.9677 43.1355C91.2832 44.1944 90.899 46.0066 91.9951 47.7503ZM93.3178 46.9424C92.8708 46.2314 93.103 45.436 94.051 44.84L94.7366 44.409C95.6846 43.813 96.4936 43.954 96.9406 44.665C97.3875 45.376 97.1416 46.1683 96.219 46.7483L95.5334 47.1793C94.5938 47.77 93.7701 47.6619 93.3178 46.9424Z" fill="white"/>
<path d="M94.5469 52.1506L95.1361 53.9985L97.6699 53.1907L97.8794 53.8479L95.7313 55.8656L96.3509 57.8088L98.7816 55.4597C99.2518 56.0129 99.8708 56.3087 100.804 56.0111L100.976 55.9564C102.367 55.513 102.773 54.418 102.214 52.6653L101.358 49.979L94.5469 52.1506ZM98.8701 52.808L100.537 52.2765L100.777 53.029C100.968 53.6291 100.869 54.0073 100.335 54.1773L100.183 54.2259C99.6302 54.4021 99.3014 54.1606 99.107 53.551L98.8701 52.808Z" fill="white"/>
<path d="M96.6304 59.9268L96.9905 64.3312L98.5052 64.2074L98.3047 61.756L103.915 61.2973L103.755 59.3442L96.6304 59.9268Z" fill="white"/>
<path d="M104.029 67.4716L96.9678 66.3596L96.5416 69.0657C96.187 71.3175 97.1476 72.6732 99.2019 72.9967L99.9327 73.1118C101.997 73.4369 103.249 72.4296 103.603 70.1777L104.029 67.4716ZM102.134 69.8654C101.966 70.9321 101.393 71.2972 100.207 71.1106L99.5062 71.0002C98.3408 70.8166 97.866 70.2965 98.0324 69.2398L98.1459 68.5188L102.245 69.1642L102.134 69.8654Z" fill="white"/>
<path d="M42.6738 97.5889L44.3444 98.6132L47.2919 93.806L48.7494 94.6996L49.5386 93.4126L44.9615 90.6062L44.1723 91.8932L45.6213 92.7817L42.6738 97.5889Z" fill="white"/>
<path d="M52.3394 102.251C54.3062 102.862 55.9905 102.025 56.593 100.087L56.8304 99.323C57.4448 97.3467 56.4172 95.8023 54.5459 95.2205C52.7128 94.6507 50.9163 95.4114 50.3168 97.34L50.0764 98.1133C49.4858 100.013 50.3727 101.64 52.3394 102.251ZM52.8186 100.777C52.0166 100.528 51.6755 99.7726 52.0079 98.7033L52.2483 97.93C52.5807 96.8607 53.2869 96.4415 54.0889 96.6908C54.8908 96.9401 55.2194 97.7019 54.8959 98.7426L54.6555 99.5159C54.326 100.576 53.6301 101.029 52.8186 100.777Z" fill="white"/>
<path d="M64.056 103.87L66.025 103.82L65.8414 96.6733L63.8724 96.7239L64.056 103.87Z" fill="white"/>
<path d="M69.5359 103.512L71.4335 103.11L70.9118 100.645L71.8019 100.457C73.4941 100.099 74.2351 99.2059 73.9329 97.7779L73.8956 97.6018C73.5913 96.1639 72.6236 95.5512 70.7651 95.9445L68.0557 96.518L69.5359 103.512ZM70.6365 99.3442L70.2555 97.5445L70.9891 97.3892C71.5858 97.2629 71.9444 97.4118 72.0706 98.0085L72.1017 98.1552C72.2259 98.7421 71.9765 99.0606 71.3603 99.191L70.6365 99.3442Z" fill="white"/>
<path d="M80.9183 99.9941C82.7658 99.0837 83.411 97.3168 82.5138 95.4963L82.1603 94.7788C81.2455 92.9224 79.437 92.5095 77.6792 93.3757C75.9573 94.2242 75.1779 96.0127 76.0706 97.8243L76.4285 98.5507C77.308 100.335 79.0709 100.905 80.9183 99.9941ZM80.2513 98.5952C79.4979 98.9664 78.7307 98.6535 78.2357 97.649L77.8777 96.9226C77.3828 95.9181 77.6064 95.128 78.3598 94.7568C79.1131 94.3856 79.8758 94.7119 80.3575 95.6895L80.7155 96.4159C81.2061 97.4114 81.0136 98.2196 80.2513 98.5952Z" fill="white"/>
</svg>
