<svg width="279" height="117" viewBox="0 0 279 117" fill="none" xmlns="http://www.w3.org/2000/svg">
<path d="M44.7993 103.226C68.0381 111.675 97.8405 116.251 127.102 116.852V116.931H144.932C176.27 116.931 208.854 112.324 233.846 103.237C246.324 98.7008 257.306 92.906 265.279 85.6776C273.327 78.3808 278.645 69.2734 278.645 58.4708C278.645 50.6175 275.546 39.8242 263.314 29.6163C253.051 21.0419 237.735 14.0808 219.446 9.09278C197.523 3.11507 171.756 0 144.932 0L133.714 0C102.376 0 69.7917 4.60691 44.7993 13.6933C32.3214 18.2297 21.3392 24.0245 13.3664 31.253C5.31822 38.5497 0 47.6571 0 58.4598C0 69.2624 5.31822 78.3698 13.3664 85.6665C21.3392 92.895 32.3214 98.6898 44.7993 103.226Z" fill="#CEC9F8"/>
<path fill-rule="evenodd" clip-rule="evenodd" d="M18.409 36.8151C11.4346 43.1384 7.50725 50.3641 7.50725 58.4607C7.50725 66.5572 11.4346 73.783 18.409 80.1062C25.3936 86.4388 35.3875 91.8178 47.3648 96.1723C71.3146 104.88 102.981 109.414 133.714 109.414H134.609V109.425L144.932 109.425C175.666 109.425 207.332 104.891 231.282 96.1834C243.259 91.8288 253.253 86.4498 260.238 80.1173C267.212 73.794 271.139 66.5682 271.139 58.4717C271.139 52.8161 269.007 44.143 258.502 35.3781C249.394 27.7682 235.227 21.1782 217.471 16.3358C196.304 10.564 171.216 7.50749 144.932 7.50749L133.714 7.50749C102.981 7.50749 71.3146 12.0417 47.3648 20.749C35.3875 25.1035 25.3936 30.4825 18.409 36.8151ZM132.82 111.202C102.221 111.115 70.718 106.567 46.7534 97.8541C34.6567 93.4562 24.4273 87.9781 17.2071 81.432C9.9767 74.8766 5.71777 67.2023 5.71777 58.4607C5.71777 49.719 9.9767 42.0447 17.2071 35.4894C24.4273 28.9432 34.6567 23.4651 46.7534 19.0672C70.9517 10.2696 102.837 5.71802 133.714 5.71802L144.932 5.71802C171.345 5.71802 196.595 8.78849 217.942 14.6094C235.825 19.4865 250.265 26.1646 259.649 34.0044C270.566 43.1134 272.929 52.2921 272.929 58.4717C272.929 67.2133 268.67 74.8876 261.44 81.443C254.219 87.9891 243.99 93.4672 231.893 97.8651C207.695 106.663 175.81 111.214 144.932 111.214L132.82 111.214V111.202Z" fill="black"/>
<path fill-rule="evenodd" clip-rule="evenodd" d="M64.1529 23.4572C44.5683 28.6844 29.6026 36.0247 21.6197 44.4553L20.3203 43.2249C28.6466 34.4317 44.0017 26.9835 63.6915 21.7282C83.4145 16.464 107.607 13.3684 133.735 13.3684V15.1579C107.739 15.1579 83.7043 18.2388 64.1529 23.4572Z" fill="black"/>
<path fill-rule="evenodd" clip-rule="evenodd" d="M64.1077 93.4664C83.6658 98.693 107.717 101.779 133.735 101.779V103.569C107.585 103.569 83.3757 100.468 63.6457 95.1952C43.9491 89.9317 28.5961 82.4723 20.2861 73.6672L21.5875 72.439C29.5538 80.8798 44.5161 88.2309 64.1077 93.4664Z" fill="black"/>
<path fill-rule="evenodd" clip-rule="evenodd" d="M83.5696 23.4276C68.9315 28.6338 57.7519 35.939 51.7742 44.3358L50.3164 43.298C56.5926 34.4819 68.1578 27.0097 82.97 21.7416C97.8027 16.4662 115.983 13.3672 135.611 13.3672V15.1567C116.162 15.1567 98.1872 18.2287 83.5696 23.4276Z" fill="black"/>
<path fill-rule="evenodd" clip-rule="evenodd" d="M193.042 23.4276C207.68 28.6338 218.859 35.939 224.837 44.3358L226.295 43.298C220.019 34.4819 208.454 27.0097 193.641 21.7416C178.809 16.4662 160.628 13.3672 141 13.3672V15.1567C160.449 15.1567 178.424 18.2287 193.042 23.4276Z" fill="black"/>
<path fill-rule="evenodd" clip-rule="evenodd" d="M83.4815 93.4749C98.1139 98.6942 116.122 101.78 135.609 101.78V103.569C115.943 103.569 97.7285 100.457 82.8803 95.1604C68.053 89.8715 56.4893 82.3711 50.2461 73.5255L51.7081 72.4937C57.6527 80.9161 68.8283 88.2482 83.4815 93.4749Z" fill="black"/>
<path fill-rule="evenodd" clip-rule="evenodd" d="M137.474 15.1452C111.428 15.1452 89.4924 27.6066 81.7017 44.6512L80.0742 43.9073C88.2402 26.0414 110.956 13.3557 137.474 13.3557V15.1452Z" fill="black"/>
<path fill-rule="evenodd" clip-rule="evenodd" d="M82.0325 72.9934C90.1059 89.6678 111.789 101.779 137.472 101.779V103.569C111.318 103.569 88.878 91.238 80.4219 73.7732L82.0325 72.9934Z" fill="black"/>
<path fill-rule="evenodd" clip-rule="evenodd" d="M139.354 15.1564C126.979 15.1564 116.139 26.9098 112.068 43.8821L110.328 43.4647C114.478 26.1656 125.744 13.3669 139.354 13.3669V15.1564Z" fill="black"/>
<path fill-rule="evenodd" clip-rule="evenodd" d="M111.864 72.1511C111.997 72.7492 112.125 73.3269 112.274 73.8909L112.276 73.8978L112.276 73.8978C116.499 90.4171 127.179 101.777 139.344 101.777V103.566C125.967 103.566 114.851 91.1912 110.543 74.3444C110.385 73.7442 110.25 73.1358 110.119 72.5473L110.117 72.5393L111.864 72.1511Z" fill="black"/>
<path fill-rule="evenodd" clip-rule="evenodd" d="M144.966 13.3774C171.513 13.3774 196.068 16.5697 215.959 21.9933C232.668 26.5493 246.152 32.6866 254.778 39.8781C256.053 40.9408 257.233 42.0306 258.295 43.1479C258.417 43.2708 258.537 43.4019 258.64 43.5157L258.646 43.5228L257.322 44.7265C257.209 44.6021 257.114 44.4972 257.021 44.4047L257.013 44.3965L257.005 44.3881C255.997 43.3264 254.866 42.2811 253.632 41.2526L253.632 41.2525C245.287 34.2947 232.081 28.2441 215.488 23.7198L215.724 22.8566L215.488 23.7198C195.774 18.3441 171.379 15.1669 144.966 15.1669V13.3774Z" fill="black"/>
<path fill-rule="evenodd" clip-rule="evenodd" d="M215.313 95.1231C195.532 100.44 171.22 103.569 144.954 103.569V101.779C171.087 101.779 195.24 98.6653 214.849 93.395C234.492 88.1153 249.45 80.7046 257.327 72.2024L258.64 73.4185C250.417 82.2945 235.06 89.8155 215.313 95.1231Z" fill="black"/>
<path fill-rule="evenodd" clip-rule="evenodd" d="M196.154 95.0408C181.245 100.409 162.906 103.569 143.091 103.569V101.78C162.726 101.78 180.857 98.6473 195.547 93.3571C210.26 88.0591 221.426 80.6328 227.26 72.1179L228.736 73.1294C222.603 82.0808 211.041 89.6799 196.154 95.0408Z" fill="black"/>
<path fill-rule="evenodd" clip-rule="evenodd" d="M141.218 13.3579C167.438 13.3579 189.935 25.755 198.336 43.3112L196.722 44.0836C188.703 27.3243 166.967 15.1474 141.218 15.1474V13.3579Z" fill="black"/>
<path fill-rule="evenodd" clip-rule="evenodd" d="M198.692 72.8656C198.186 73.9682 197.635 75.0491 197.026 76.1191L197.025 76.1209C187.756 92.3385 166.186 103.57 141.216 103.57V101.781C165.724 101.781 186.601 90.7525 195.471 75.2335C196.053 74.2102 196.581 73.1757 197.066 72.1189L198.692 72.8656Z" fill="black"/>
<path fill-rule="evenodd" clip-rule="evenodd" d="M139.341 13.3679C152.985 13.3679 164.284 26.2466 168.4 43.6447L166.659 44.0567C162.62 26.985 151.747 15.1574 139.341 15.1574V13.3679Z" fill="black"/>
<path fill-rule="evenodd" clip-rule="evenodd" d="M168.504 72.8892C164.467 90.4849 153.104 103.569 139.345 103.569V101.779C151.856 101.779 162.797 89.7598 166.76 72.489L168.504 72.8892Z" fill="black"/>
<path fill-rule="evenodd" clip-rule="evenodd" d="M140.236 43.7075H138.446V14.2633C138.446 14.2632 138.446 14.2627 139.341 14.2627C140.236 14.2627 140.236 14.2627 140.236 14.2628V43.7075Z" fill="black"/>
<path fill-rule="evenodd" clip-rule="evenodd" d="M140.236 102.674C140.236 102.674 140.236 102.674 139.341 102.674C138.446 102.674 138.446 102.674 138.446 102.674V73.1628H140.236V102.674Z" fill="black"/>
<path fill-rule="evenodd" clip-rule="evenodd" d="M61.0901 22.5596C83.221 27.5788 110.207 30.5377 139.342 30.5377C168.477 30.5377 195.463 27.5898 217.593 22.5597L217.99 24.3046C195.71 29.3686 168.59 32.3272 139.342 32.3272C110.094 32.3272 82.973 29.3575 60.6943 24.3047L61.0901 22.5596Z" fill="black"/>
<path fill-rule="evenodd" clip-rule="evenodd" d="M60.707 92.6328C82.9857 87.5801 110.095 84.6104 139.343 84.6104C168.591 84.6104 195.701 87.569 217.98 92.6329L217.584 94.3779C195.453 89.3478 168.478 86.3998 139.343 86.3998C110.209 86.3998 83.2337 89.3587 61.1028 94.378L60.707 92.6328Z" fill="black"/>
<path fill-rule="evenodd" clip-rule="evenodd" d="M10.4311 43.1851L268.12 43.1851L268.384 43.6001C271.954 49.2225 272.931 54.417 272.931 58.3614C272.931 63.6728 271.352 68.5976 268.483 73.1221L268.219 73.5377L10.4311 73.5377L10.1676 73.1221C7.2986 68.5976 5.71973 63.6728 5.71973 58.3614C5.71973 53.0499 7.2986 48.1252 10.1676 43.6007L10.4311 43.1851ZM11.4199 44.9745C8.87863 49.126 7.5092 53.5843 7.5092 58.3614C7.5092 63.1385 8.87863 67.5967 11.4199 71.7482L267.231 71.7482C269.772 67.5967 271.141 63.1385 271.141 58.3614C271.141 54.8192 270.291 50.1215 267.132 44.9745L11.4199 44.9745Z" fill="black"/>
<path fill-rule="evenodd" clip-rule="evenodd" d="M270.568 50.2316L7.71387 50.2316L7.71387 48.4421L270.568 48.4421V50.2316Z" fill="black"/>
<path fill-rule="evenodd" clip-rule="evenodd" d="M270.568 68.4799L7.71387 68.4799L7.71387 66.6904L270.568 66.6904V68.4799Z" fill="black"/>
<path d="M35.5261 59.5728C35.5261 57.6782 34.3125 57.1333 32.4674 56.7494C31.4396 56.5389 31.1547 56.316 31.1547 55.8207C31.1547 55.3254 31.4767 55.0529 32.0711 55.0529C32.7398 55.0529 32.9999 55.4616 33.0618 55.9817L35.3155 55.7588C35.1917 54.409 34.2258 53.3069 32.0959 53.3069C30.065 53.3069 28.8515 54.3842 28.8515 56.0064C28.8515 57.6287 29.6688 58.4212 31.7491 58.8422C32.7893 59.0527 33.1732 59.2137 33.1732 59.8205C33.1732 60.3282 32.8141 60.675 32.133 60.675C31.3405 60.675 31.0309 60.2292 30.9566 59.5481L28.6533 59.7834C28.8019 61.3437 29.9907 62.4334 32.1206 62.4334C34.3249 62.4334 35.5261 61.2074 35.5261 59.5728Z" fill="black"/>
<path d="M37.6222 62.2848H43.4795V60.4149H40.0246V58.6317H42.6251V56.9104H40.0246V55.3006H43.2938V53.4307H37.6222V62.2848Z" fill="black"/>
<path d="M45.5888 62.2848L51.0622 62.2848V60.4025H48.0159V53.4307H45.5888V62.2848Z" fill="black"/>
<path d="M53.1684 62.2848H58.6418V60.4025H55.5955V53.4307H53.1684V62.2848Z" fill="black"/>
<path d="M63.8652 62.2848L69.7225 62.2848V60.4149H66.2675V58.6317H68.868V56.9104H66.2675V55.3006H69.5367V53.4307H63.8652V62.2848Z" fill="black"/>
<path d="M75.3609 59.6843L73.7759 53.4307L71.2002 53.4307L73.8006 62.2848H76.6488L79.1874 53.4307H76.9584L75.3609 59.6843Z" fill="black"/>
<path d="M81.0559 62.2848H86.9132V60.4149H83.4583V58.6317H86.0588V56.9104H83.4583V55.3006H86.7275V53.4307H81.0559V62.2848Z" fill="black"/>
<path d="M89.0225 62.2848H91.4248V58.9908H92.2793L93.852 62.2848H96.3782L94.5207 58.5326C95.3503 58.1859 95.9324 57.5667 95.9324 56.3532V56.1303C95.9324 54.3223 94.7931 53.4307 92.5146 53.4307H89.0225V62.2848ZM91.4248 57.4305V55.2634H92.4031C93.1833 55.2634 93.5919 55.5235 93.5919 56.217V56.4151C93.5919 57.1333 93.1833 57.4305 92.3907 57.4305H91.4248Z" fill="black"/>
<path d="M99.7803 62.2848H102.207V58.5079L104.734 53.4307H102.455L101.105 56.3656L99.7431 53.4307H97.1303L99.7803 58.5203V62.2848Z" fill="black"/>
<path d="M108.258 62.2848H110.685V55.3006H112.803V53.4307H106.153V55.3006H108.258V62.2848Z" fill="black"/>
<path d="M114.784 62.2848H117.187V58.7308H119.75V62.2848H122.153V53.4307H119.75V56.8237H117.187V53.4307H114.784V62.2848Z" fill="black"/>
<path d="M124.675 62.2848H127.114V53.4307H124.675V62.2848Z" fill="black"/>
<path d="M129.641 62.2848H131.784V56.7247L134.632 62.2848H136.972V53.4307H134.83V58.3469L132.341 53.4307L129.641 53.4307V62.2848Z" fill="black"/>
<path d="M147.16 58.7679V57.4305H143.384V59.127H144.82C144.783 59.9815 144.349 60.5759 143.334 60.5759C142.083 60.5759 141.625 59.6719 141.625 58.4088V57.3562C141.625 55.9941 142.269 55.2015 143.26 55.2015C144.164 55.2015 144.535 55.8331 144.597 56.4027L146.987 56.1179C146.789 54.3471 145.315 53.3069 143.247 53.3069C140.895 53.3069 139.124 54.8424 139.124 57.3686V58.3593C139.124 60.8359 140.597 62.4334 143.26 62.4334C145.86 62.4334 147.16 60.9969 147.16 58.7679Z" fill="black"/>
<path d="M151.129 61.5418V61.3684C151.129 60.5264 150.584 60.0063 149.841 60.0063C149.197 60.0063 148.652 60.4149 148.652 61.0712C148.652 61.678 149.023 62.0743 149.729 62.1114C149.705 62.4458 149.37 62.6439 148.763 62.7058V63.5727C150.249 63.5603 151.129 62.8668 151.129 61.5418Z" fill="black"/>
<path d="M156.477 62.2848H162.334V60.4149L158.879 60.4149V58.6317H161.48V56.9104L158.879 56.9104V55.3006L162.148 55.3006V53.4307L156.477 53.4307V62.2848Z" fill="black"/>
<path d="M167.973 59.6843L166.387 53.4307H163.812L166.412 62.2848H169.26L171.799 53.4307H169.57L167.973 59.6843Z" fill="black"/>
<path d="M173.668 62.2848H179.525V60.4149H176.07V58.6317H178.67V56.9104H176.07V55.3006H179.339V53.4307H173.668V62.2848Z" fill="black"/>
<path d="M181.634 62.2848H184.036V58.9908H184.891L186.464 62.2848H188.99L187.132 58.5326C187.962 58.1859 188.544 57.5667 188.544 56.3532V56.1303C188.544 54.3223 187.405 53.4307 185.126 53.4307H181.634V62.2848ZM184.036 57.4305V55.2634H185.015C185.795 55.2634 186.204 55.5235 186.204 56.217V56.4151C186.204 57.1333 185.795 57.4305 185.002 57.4305H184.036Z" fill="black"/>
<path d="M192.392 62.2848H194.819V58.5079L197.345 53.4307H195.067L193.717 56.3656L192.355 53.4307H189.742L192.392 58.5203V62.2848Z" fill="black"/>
<path d="M200.573 62.2848H203.024L204.275 57.0714L205.501 62.2848H207.804L209.736 53.4307H207.507L206.455 58.9413L205.192 53.4307H203.272L202.108 58.8918L201.093 53.4307H198.665L200.573 62.2848Z" fill="black"/>
<path d="M211.617 62.2848H214.019V58.7308H216.582V62.2848H218.985V53.4307L216.582 53.4307V56.8237H214.019V53.4307H211.617V62.2848Z" fill="black"/>
<path d="M221.47 62.2848L227.327 62.2848V60.4149H223.872V58.6317H226.472V56.9104H223.872V55.3006H227.141V53.4307H221.47V62.2848Z" fill="black"/>
<path d="M229.436 62.2848H231.839V58.9908H232.693L234.266 62.2848H236.792L234.934 58.5326C235.764 58.1859 236.346 57.5667 236.346 56.3532V56.1303C236.346 54.3223 235.207 53.4307 232.928 53.4307H229.436V62.2848ZM231.839 57.4305V55.2634H232.817C233.597 55.2634 234.006 55.5235 234.006 56.217V56.4151C234.006 57.1333 233.597 57.4305 232.804 57.4305H231.839Z" fill="black"/>
<path d="M238.66 62.2848L244.518 62.2848V60.4149H241.063V58.6317H243.663V56.9104H241.063V55.3006H244.332V53.4307H238.66V62.2848Z" fill="black"/>
<path d="M247.822 62.4086C248.516 62.4086 249.048 61.8885 249.048 61.2322C249.048 60.5635 248.516 60.031 247.822 60.031C247.116 60.031 246.596 60.5635 246.596 61.2322C246.596 61.8885 247.116 62.4086 247.822 62.4086Z" fill="black"/>
<circle r="2.20395" transform="matrix(1 0 0 -1 17.6327 58.4062)" fill="black"/>
<circle r="2.20395" transform="matrix(1 0 0 -1 260.066 58.4049)" fill="black"/>
</svg>
