<svg width="170" height="170" viewBox="0 0 170 170" fill="none" xmlns="http://www.w3.org/2000/svg">
<g filter="url(#filter0_dd_1409_49869)">
<mask id="mask0_1409_49869" style="mask-type:alpha" maskUnits="userSpaceOnUse" x="7" y="7" width="157" height="157">
<path fill-rule="evenodd" clip-rule="evenodd" d="M159.75 109.302C162.194 101.726 163.514 93.6458 163.514 85.2569C163.514 42.0368 128.477 7 85.2569 7C42.0368 7 7 42.0368 7 85.2569C7 128.477 42.0368 163.514 85.2569 163.514C94.81 163.514 103.963 161.802 112.427 158.668C119.666 135.766 137.278 117.473 159.75 109.302Z" fill="#A5E3B9"/>
</mask>
<g mask="url(#mask0_1409_49869)">
<circle cx="85.2569" cy="85.2574" r="78.2569" fill="#A5E3B9"/>
<path fill-rule="evenodd" clip-rule="evenodd" d="M84.596 154.194C122.348 154.194 152.952 123.589 152.952 85.8372C152.952 48.085 122.348 17.4809 84.596 17.4809C46.8438 17.4809 16.2397 48.085 16.2397 85.8372C16.2397 123.589 46.8438 154.194 84.596 154.194ZM84.596 155.983C123.336 155.983 154.742 124.578 154.742 85.8372C154.742 47.0967 123.336 15.6914 84.596 15.6914C45.8555 15.6914 14.4502 47.0967 14.4502 85.8372C14.4502 124.578 45.8555 155.983 84.596 155.983Z" fill="black"/>
<path d="M39.5175 74.313L40.7558 70.2369L39.3541 69.811L38.6649 72.0796L33.4729 70.5023L32.9238 72.3098L39.5175 74.313Z" fill="black"/>
<path d="M41.6626 68.1355L42.4347 66.4008L36.139 63.5984L35.3669 65.333L41.6626 68.1355Z" fill="black"/>
<path d="M43.5315 63.9913L44.4315 62.6107L40.8466 60.2738L45.2526 61.3511L45.5789 60.8505L42.8255 57.2379L46.4104 59.5747L47.4262 58.0164L41.6532 54.2533L40.3532 56.2477L42.6287 59.146L39.0637 58.2258L37.7585 60.2282L43.5315 63.9913Z" fill="black"/>
<path d="M49.3353 55.902L50.6079 54.4929L45.4935 49.8741L44.221 51.2833L49.3353 55.902Z" fill="black"/>
<path d="M53.3537 51.825L54.7919 50.6002L51.2675 46.4616L52.5222 45.3931L51.5786 44.2851L47.6382 47.6408L48.5818 48.7488L49.8292 47.6864L53.3537 51.825Z" fill="black"/>
<path d="M58.0848 48.064L61.9753 45.6877L61.2167 44.4457L58.9219 45.8473L58.1985 44.6629L59.9258 43.6079L59.2275 42.4646L57.5002 43.5196L56.8471 42.4503L59.0186 41.124L58.26 39.882L54.4928 42.1829L58.0848 48.064Z" fill="black"/>
<path d="M61.5201 38.1619L64.0855 44.5578L66.5366 43.5747C68.5761 42.7567 69.2244 41.292 68.4781 39.4314L68.2126 38.7694C67.4627 36.8999 66.0107 36.3607 63.9712 37.1788L61.5201 38.1619ZM64.4378 38.5493C65.4039 38.1618 65.9894 38.4565 66.42 39.53L66.6747 40.1651C67.0981 41.2207 66.9019 41.8705 65.9447 42.2544L65.2917 42.5164L63.8027 38.804L64.4378 38.5493Z" fill="black"/>
<path d="M77.2124 40.6332L79.0871 40.4009L78.4184 35.0063L80.0541 34.8035L79.875 33.3592L74.7387 33.9959L74.9177 35.4402L76.5437 35.2386L77.2124 40.6332Z" fill="black"/>
<path d="M83.822 40.1464L85.7206 40.1684L85.8004 33.2776L83.9018 33.2556L83.822 40.1464Z" fill="black"/>
<path d="M88.0601 40.1878L89.6857 40.4594L90.3907 36.2385L91.1686 40.7071L91.758 40.8056L93.9651 36.8356L93.2601 41.0565L95.0948 41.3629L96.2302 34.5659L93.8821 34.1736L92.138 37.4196L91.5531 33.7846L89.1955 33.3908L88.0601 40.1878Z" fill="black"/>
<path d="M97.6289 42.1473L101.909 43.7167L102.41 42.3503L99.8855 41.4246L100.363 40.1216L102.264 40.8183L102.725 39.5605L100.824 38.8637L101.256 37.6874L103.645 38.5634L104.146 37.197L100.001 35.6773L97.6289 42.1473Z" fill="black"/>
<path d="M110.287 48.5586C111.91 49.7029 113.703 49.4345 114.831 47.8357L115.275 47.2056C116.425 45.5752 115.941 43.8538 114.397 42.765C112.885 41.6984 111.012 41.8631 109.889 43.4541L109.439 44.092C108.334 45.6594 108.665 47.4143 110.287 48.5586ZM111.164 47.3489C110.503 46.8823 110.414 46.0884 111.036 45.2063L111.486 44.5683C112.108 43.6862 112.88 43.5113 113.542 43.9779C114.203 44.4445 114.279 45.2407 113.673 46.0992L113.223 46.7372C112.607 47.6114 111.834 47.8211 111.164 47.3489Z" fill="black"/>
<path d="M115.16 52.2983L116.494 53.6224L118.259 51.844L119.668 53.2428L120.653 52.251L119.244 50.8522L120.323 49.7647L122.068 51.4962L123.093 50.4634L120.015 47.4077L115.16 52.2983Z" fill="black"/>
<path d="M119.526 56.9214L120.665 58.4167L122.658 56.8985L123.861 58.4782L124.973 57.6315L123.77 56.0519L124.99 55.1235L126.478 57.0789L127.636 56.1972L125.009 52.7465L119.526 56.9214Z" fill="black"/>
<path d="M123.265 62.1282L125.452 66.1281L126.729 65.4298L125.439 63.0705L126.656 62.4046L127.627 64.1805L128.803 63.5377L127.832 61.7619L128.931 61.1607L130.152 63.3932L131.429 62.695L129.311 58.8219L123.265 62.1282Z" fill="black"/>
<path d="M126.572 68.5885L127.183 70.3557L129.606 69.5185L129.823 70.1471L127.8 72.1412L128.442 73.9996L130.73 71.6795C131.196 72.2017 131.799 72.4725 132.692 72.1641L132.856 72.1074C134.186 71.6479 134.552 70.5832 133.973 68.907L133.086 66.3381L126.572 68.5885ZM130.754 69.122L132.348 68.5712L132.597 69.2908C132.795 69.8648 132.707 70.2315 132.197 70.4077L132.051 70.4581C131.523 70.6406 131.201 70.4156 130.999 69.8325L130.754 69.122Z" fill="black"/>
<path d="M32.9736 100.461L34.2273 104.532L35.6274 104.101L34.9297 101.835L40.1156 100.238L39.5597 98.4329L32.9736 100.461Z" fill="black"/>
<path d="M35.3884 107.311L36.1605 109.046L42.4562 106.243L41.6841 104.509L35.3884 107.311Z" fill="black"/>
<path d="M37.8556 112.56L38.7555 113.941L42.3405 111.604L39.5766 115.2L39.9029 115.701L44.3194 114.64L40.7345 116.977L41.7502 118.535L47.5233 114.772L46.2233 112.778L42.6531 113.69L44.9339 110.8L43.6286 108.797L37.8556 112.56Z" fill="black"/>
<path d="M44.4128 121.636L45.6854 123.045L50.7998 118.427L49.5272 117.017L44.4128 121.636Z" fill="black"/>
<path d="M49.1776 126.44L50.6158 127.665L54.1402 123.526L55.395 124.595L56.3386 123.487L52.3982 120.131L51.4546 121.239L52.702 122.302L49.1776 126.44Z" fill="black"/>
<path d="M54.9132 130.935L58.8038 133.311L59.5624 132.069L57.2675 130.668L57.9909 129.483L59.7183 130.538L60.4166 129.395L58.6892 128.34L59.3423 127.271L61.5138 128.597L62.2724 127.355L58.5052 125.054L54.9132 130.935Z" fill="black"/>
<path d="M64.9777 128.784L62.4363 135.189L64.891 136.163C66.9336 136.974 68.412 136.357 69.1513 134.494L69.4143 133.831C70.1572 131.959 69.475 130.568 67.4324 129.758L64.9777 128.784ZM66.8276 131.073C67.7951 131.457 68.017 132.074 67.5905 133.149L67.3381 133.785C66.9187 134.842 66.329 135.178 65.3704 134.798L64.7164 134.539L66.1915 130.821L66.8276 131.073Z" fill="black"/>
<path d="M77.1964 139.487L79.0712 139.72L79.7398 134.325L81.3754 134.528L81.5544 133.084L76.4181 132.447L76.239 133.891L77.8651 134.093L77.1964 139.487Z" fill="black"/>
<path d="M84.8799 140.04L86.7785 140.018L86.6987 133.127L84.8001 133.149L84.8799 140.04Z" fill="black"/>
<path d="M90.7312 139.844L92.3558 139.567L91.6346 135.348L93.8378 139.313L94.4268 139.212L95.2066 134.738L95.9279 138.956L97.7614 138.642L96.6 131.85L94.2534 132.251L93.6729 135.89L91.9259 132.649L89.5698 133.052L90.7312 139.844Z" fill="black"/>
<path d="M101.339 137.566L105.619 135.997L105.118 134.63L102.593 135.556L102.115 134.253L104.016 133.556L103.554 132.299L101.654 132.995L101.223 131.819L103.612 130.943L103.111 129.577L98.9663 131.096L101.339 137.566Z" fill="black"/>
<path d="M116.272 130.181C117.89 129.031 118.233 127.25 117.099 125.655L116.653 125.027C115.497 123.401 113.712 123.286 112.173 124.38C110.664 125.452 110.197 127.274 111.325 128.861L111.777 129.497C112.889 131.061 114.654 131.331 116.272 130.181ZM115.422 128.952C114.762 129.421 113.984 129.241 113.359 128.361L112.906 127.725C112.281 126.845 112.373 126.059 113.032 125.59C113.692 125.121 114.468 125.314 115.077 126.171L115.529 126.807C116.149 127.679 116.09 128.478 115.422 128.952Z" fill="black"/>
<path d="M121.754 125.598L123.088 124.274L121.323 122.496L122.732 121.097L121.747 120.105L120.338 121.504L119.258 120.417L121.002 118.685L119.977 117.652L116.899 120.708L121.754 125.598Z" fill="black"/>
<path d="M127.045 119.906L128.178 118.407L126.179 116.896L127.376 115.312L126.261 114.469L125.064 116.053L123.842 115.129L125.323 113.169L124.162 112.291L121.547 115.751L127.045 119.906Z" fill="black"/>
<path d="M131.248 113.935L133.435 109.935L132.159 109.237L130.868 111.596L129.651 110.93L130.622 109.154L129.446 108.511L128.475 110.287L127.376 109.686L128.597 107.454L127.32 106.755L125.202 110.628L131.248 113.935Z" fill="black"/>
<path d="M135.102 106.249L135.712 104.482L133.289 103.645L133.506 103.016L136.329 102.696L136.971 100.838L133.739 101.251C133.695 100.552 133.387 99.9669 132.494 99.6585L132.33 99.6018C131 99.1423 130.055 99.7538 129.476 101.43L128.588 103.999L135.102 106.249ZM132.141 103.248L130.547 102.697L130.796 101.978C130.994 101.404 131.289 101.169 131.799 101.346L131.945 101.396C132.473 101.578 132.588 101.955 132.387 102.538L132.141 103.248Z" fill="black"/>
<path d="M35.5169 88.1043C36.9047 88.1043 38.0298 86.9792 38.0298 85.5913C38.0298 84.2035 36.9047 83.0784 35.5169 83.0784C34.129 83.0784 33.0039 84.2035 33.0039 85.5913C33.0039 86.9792 34.129 88.1043 35.5169 88.1043Z" fill="black"/>
<path d="M133.021 88.1036C134.409 88.1036 135.534 86.9785 135.534 85.5906C135.534 84.2027 134.409 83.0776 133.021 83.0776C131.633 83.0776 130.508 84.2027 130.508 85.5906C130.508 86.9785 131.633 88.1036 133.021 88.1036Z" fill="black"/>
<path fill-rule="evenodd" clip-rule="evenodd" d="M89.0273 62.2598C86.928 60.1605 83.5242 60.1605 81.4249 62.2598L79.9862 63.6985C78.474 65.2107 76.423 66.0603 74.2844 66.0603H71.7867C68.8177 66.0603 66.4109 68.4671 66.4109 71.436V73.9337C66.4109 76.0723 65.5614 78.1233 64.0491 79.6356L62.6097 81.075C60.5103 83.1744 60.5103 86.5781 62.6097 88.6775L64.0491 90.1169C65.5614 91.6292 66.4109 93.6802 66.4109 95.8188V98.3149C66.4109 101.284 68.8177 103.691 71.7867 103.691H74.2827C76.4214 103.691 78.4724 104.54 79.9846 106.052L81.4249 107.493C83.5242 109.592 86.928 109.592 89.0273 107.493L90.4676 106.052C91.9798 104.54 94.0309 103.691 96.1695 103.691H98.6655C101.634 103.691 104.041 101.284 104.041 98.3149V95.8188C104.041 93.6802 104.891 91.6292 106.403 90.1169L107.843 88.6775C109.942 86.5781 109.942 83.1744 107.843 81.075L106.403 79.6356C104.891 78.1233 104.041 76.0723 104.041 73.9337V71.436C104.041 68.4671 101.634 66.0603 98.6655 66.0603H96.1679C94.0292 66.0603 91.9782 65.2107 90.466 63.6985L89.0273 62.2598ZM92.8383 78.3036C93.6618 77.0684 93.328 75.3996 92.0928 74.5761C90.8577 73.7527 89.1889 74.0865 88.3654 75.3216L77.6139 91.4489C76.7904 92.6841 77.1242 94.3529 78.3594 95.1764C79.5945 95.9998 81.2634 95.666 82.0868 94.4309L92.8383 78.3036ZM75.8185 82.1884C78.0452 82.1884 79.8503 80.3833 79.8503 78.1565C79.8503 75.9298 78.0452 74.1247 75.8185 74.1247C73.5918 74.1247 71.7867 75.9298 71.7867 78.1565C71.7867 80.3833 73.5918 82.1884 75.8185 82.1884ZM98.6655 91.596C98.6655 93.8227 96.8604 95.6278 94.6337 95.6278C92.407 95.6278 90.6019 93.8227 90.6019 91.596C90.6019 89.3692 92.407 87.5641 94.6337 87.5641C96.8604 87.5641 98.6655 89.3692 98.6655 91.596Z" fill="black"/>
</g>
<path d="M112.43 158.669C119.669 135.768 137.28 117.475 159.751 109.304L112.43 158.669Z" fill="#008060"/>
</g>
<defs>
<filter id="filter0_dd_1409_49869" x="0.792407" y="0.792407" width="168.929" height="173.468" filterUnits="userSpaceOnUse" color-interpolation-filters="sRGB">
<feFlood flood-opacity="0" result="BackgroundImageFix"/>
<feColorMatrix in="SourceAlpha" type="matrix" values="0 0 0 0 0 0 0 0 0 0 0 0 0 0 0 0 0 0 127 0" result="hardAlpha"/>
<feOffset dy="1.24152"/>
<feGaussianBlur stdDeviation="1.24152"/>
<feColorMatrix type="matrix" values="0 0 0 0 0 0 0 0 0 0 0 0 0 0 0 0 0 0 0.15 0"/>
<feBlend mode="normal" in2="BackgroundImageFix" result="effect1_dropShadow_1409_49869"/>
<feColorMatrix in="SourceAlpha" type="matrix" values="0 0 0 0 0 0 0 0 0 0 0 0 0 0 0 0 0 0 127 0" result="hardAlpha"/>
<feOffset/>
<feGaussianBlur stdDeviation="3.1038"/>
<feColorMatrix type="matrix" values="0 0 0 0 0 0 0 0 0 0 0 0 0 0 0 0 0 0 0.05 0"/>
<feBlend mode="normal" in2="effect1_dropShadow_1409_49869" result="effect2_dropShadow_1409_49869"/>
<feBlend mode="normal" in="SourceGraphic" in2="effect2_dropShadow_1409_49869" result="shape"/>
</filter>
</defs>
</svg>
